<?xml version="1.0" encoding="utf-8"?>
<!-- Generator: Adobe Illustrator 26.3.1, SVG Export Plug-In . SVG Version: 6.00 Build 0)  -->
<svg version="1.1" xmlns="http://www.w3.org/2000/svg" xmlns:xlink="http://www.w3.org/1999/xlink" x="0px" y="0px"
	 viewBox="0 0 566.93 566.93" style="enable-background:new 0 0 566.93 566.93;" xml:space="preserve">
<style type="text/css">
	.st0{clip-path:url(#SVGID_00000079466327602002260460000002046943340008140452_);fill:#FF6400;}
	.st1{opacity:0.73;fill:#98DF14;}
	.st2{clip-path:url(#SVGID_00000178194291560960198920000006715512770394940598_);fill:#FF6400;}
	.st3{fill:#2900BA;}
	.st4{fill:#2D00DE;}
	.st5{fill:#FFFFFF;}
	.st6{fill:#FFB700;}
	.st7{fill:#3A4DE7;}
	.st8{display:none;}
	.st9{display:inline;opacity:0.4;}
	.st10{opacity:0.2;fill:#FFFFFF;}
</style>
<g id="Слой_4">
	<g>
		<g>
			<path class="st4" d="M283.46,66.63c70.62,0,78.99,0.27,106.88,1.54c25.79,1.18,39.79,5.48,49.11,9.11
				c11.49,4.24,21.88,11,30.41,19.79c8.78,8.53,15.55,18.92,19.79,30.41c3.62,9.32,7.93,23.32,9.11,49.11
				c1.27,27.89,1.54,36.26,1.54,106.88s-0.27,78.99-1.54,106.88c-1.18,25.79-5.49,39.79-9.11,49.11c-8.9,23.07-27.13,41.3-50.2,50.2
				c-9.32,3.62-23.32,7.93-49.11,9.11c-27.89,1.27-36.25,1.54-106.88,1.54s-78.99-0.27-106.88-1.54
				c-25.79-1.18-39.79-5.49-49.11-9.11c-11.49-4.24-21.88-11-30.41-19.79c-8.78-8.53-15.55-18.92-19.79-30.41
				c-3.62-9.32-7.93-23.32-9.11-49.11c-1.27-27.89-1.54-36.26-1.54-106.88s0.27-78.99,1.54-106.88c1.18-25.79,5.48-39.79,9.11-49.11
				c4.24-11.49,11-21.88,19.79-30.41c8.53-8.78,18.92-15.55,30.41-19.79c9.32-3.62,23.32-7.93,49.11-9.11
				C204.47,66.9,212.84,66.63,283.46,66.63 M283.47,18.97c-71.83,0-80.84,0.3-109.05,1.59c-28.15,1.29-47.38,5.76-64.2,12.29
				C92.56,39.5,76.58,49.91,63.36,63.36c-13.46,13.21-23.87,29.2-30.52,46.85c-6.53,16.82-11,36.05-12.28,64.2
				c-1.29,28.21-1.6,37.22-1.6,109.05s0.3,80.84,1.6,109.05c1.29,28.15,5.76,47.38,12.29,64.2c6.64,17.65,17.05,33.64,30.51,46.85
				c13.21,13.45,29.2,23.87,46.85,30.51c16.82,6.54,36.05,11.01,64.2,12.29c28.21,1.29,37.22,1.59,109.05,1.59
				s80.84-0.3,109.05-1.59c28.15-1.29,47.38-5.76,64.2-12.29c35.53-13.74,63.61-41.83,77.35-77.35
				c6.54-16.82,11.01-36.05,12.29-64.2c1.29-28.21,1.59-37.22,1.59-109.05s-0.3-80.84-1.59-109.05
				c-1.29-28.15-5.76-47.38-12.29-64.2c-6.64-17.65-17.05-33.64-30.51-46.85c-13.21-13.46-29.2-23.87-46.85-30.51
				c-16.82-6.53-36.05-11-64.2-12.28C364.31,19.27,355.3,18.97,283.47,18.97L283.47,18.97L283.47,18.97z"/>
			<path class="st4" d="M283.46,147.64c-75.01,0-135.82,60.81-135.82,135.82s60.81,135.82,135.82,135.82s135.82-60.81,135.82-135.82
				l0,0C419.28,208.45,358.48,147.64,283.46,147.64z M283.46,371.63c-48.69,0-88.16-39.47-88.16-88.17s39.47-88.16,88.17-88.16
				c48.69,0,88.16,39.47,88.16,88.16C371.63,332.16,332.15,371.63,283.46,371.63z"/>
			<circle class="st4" cx="424.65" cy="142.28" r="31.74"/>
		</g>
	</g>
</g>
<g id="ruls" class="st8">
</g>
</svg>
