<?xml version="1.0" encoding="utf-8"?>
<!-- Generator: Adobe Illustrator 26.0.3, SVG Export Plug-In . SVG Version: 6.00 Build 0)  -->
<svg version="1.1" id="Layer_1" xmlns="http://www.w3.org/2000/svg" xmlns:xlink="http://www.w3.org/1999/xlink" x="0px" y="0px"
	 viewBox="0 0 16 16" style="enable-background:new 0 0 16 16;" xml:space="preserve">
<style type="text/css">
	.st0{fill:#2C00BF;}
	.st1{fill:#FFFFFF;}
</style>
<rect x="-0.01" y="0.02" class="st0" width="16" height="16"/>
<g>
	<path class="st1" d="M7.92,11.26v1.43H6.75c-1,0-1.17-0.4-1.53-1.27L4.17,8.88L2.1,12.69H0.38l3.17-5.66L3.19,4.79H2.08V3.36h1.21
		c0.96,0,1.28,0.35,1.44,1.27l0.46,2.71l1.62,3.92H7.92z"/>
	<path class="st1" d="M15.6,11.26v1.43h-1.17c-1,0-1.17-0.4-1.53-1.27l-1.04-2.54l-2.08,3.81H8.07l3.17-5.66l-0.36-2.24H9.77V3.36
		h1.21c0.96,0,1.28,0.35,1.44,1.27l0.46,2.71l1.62,3.92H15.6z"/>
</g>
</svg>
