<svg width="1712" height="933" viewBox="0 0 1712 933" fill="none" xmlns="http://www.w3.org/2000/svg">
<path d="M219.12 365.52V410.07H75.24V455.94H212.52V500.49H75.24V582H25.74V365.52H219.12ZM446.988 574.41V582H397.488L377.688 537.12H269.448L249.648 582H200.148V574.41L296.178 365.52H350.958L446.988 574.41ZM358.878 494.22L323.568 413.7L288.258 494.22H358.878ZM567.592 585.96C541.412 585.96 518.422 581.45 498.622 572.43C478.822 563.41 463.532 550.65 452.752 534.15C442.192 517.43 436.912 497.96 436.912 475.74V472.11C436.912 449.89 442.192 430.53 452.752 414.03C463.532 397.31 478.822 384.44 498.622 375.42C518.422 366.18 541.412 361.56 567.592 361.56C591.792 361.56 613.462 365.52 632.602 373.44C651.962 381.36 667.032 392.36 677.812 406.44C688.812 420.52 694.312 436.36 694.312 453.96V456.6H643.822V453.96C643.822 444.94 640.522 436.91 633.922 429.87C627.542 422.83 618.522 417.33 606.862 413.37C595.422 409.41 582.222 407.43 567.262 407.43C541.082 407.43 521.172 412.93 507.532 423.93C494.112 434.93 487.402 450.77 487.402 471.45V476.4C487.402 497.3 494.112 513.14 507.532 523.92C520.952 534.7 540.972 540.09 567.592 540.09C590.692 540.09 609.172 535.91 623.032 527.55C636.892 518.97 643.822 507.75 643.822 493.89V491.58H694.312V493.89C694.312 511.49 688.812 527.33 677.812 541.41C667.032 555.27 651.962 566.16 632.602 574.08C613.462 582 591.792 585.96 567.592 585.96ZM911.13 365.52V409.08H768.24V451.98H904.53V495.21H768.24V538.44H911.13V582H718.74V365.52H911.13Z" fill="#2E1EDA"/>
<path d="M759.9 89.2C752.033 89.2 745.167 87.8333 739.3 85.1C733.433 82.3667 728.867 78.4667 725.6 73.4C722.4 68.3333 720.8 62.4333 720.8 55.7V54.8C720.8 48.0667 722.4 42.1667 725.6 37.1C728.867 32.0333 733.433 28.1333 739.3 25.4C745.233 22.6 752.1 21.2 759.9 21.2C767.767 21.2 774.633 22.6 780.5 25.4C786.367 28.1333 790.9 32.0333 794.1 37.1C797.3 42.1667 798.9 48.0667 798.9 54.8V55.7C798.9 62.4333 797.3 68.3333 794.1 73.4C790.9 78.4667 786.367 82.3667 780.5 85.1C774.633 87.8333 767.767 89.2 759.9 89.2ZM759.9 75.3C767.633 75.3 773.5 73.6333 777.5 70.3C781.567 66.9667 783.6 62.1667 783.6 55.9V54.7C783.6 48.4333 781.533 43.6 777.4 40.2C773.333 36.8 767.5 35.1 759.9 35.1C752.233 35.1 746.333 36.8 742.2 40.2C738.133 43.6 736.1 48.4333 736.1 54.7V55.9C736.1 62.1667 738.133 66.9667 742.2 70.3C746.333 73.6333 752.233 75.3 759.9 75.3ZM848.095 22.4C855.829 22.4 861.929 24.2667 866.395 28C870.862 31.7333 873.095 36.8333 873.095 43.3V44.4C873.095 50.9333 870.862 56.0667 866.395 59.8C861.929 63.5333 855.829 65.4 848.095 65.4H821.495V88H806.495V22.4H848.095ZM847.695 52.1C850.962 52.1 853.462 51.4667 855.195 50.2C856.929 48.8667 857.795 46.9333 857.795 44.4V43.3C857.795 40.8333 856.929 38.9667 855.195 37.7C853.462 36.3667 850.962 35.7 847.695 35.7H821.495V52.1H847.695ZM938.506 22.4V35.6H895.206V48.6H936.506V61.7H895.206V74.8H938.506V88H880.206V22.4H938.506ZM1013.77 22.4V88H999.372L961.872 43.5V88H947.472V22.4H961.872L999.372 66.8V22.4H1013.77ZM756.5 132.4C768.767 132.4 778.033 135.133 784.3 140.6C790.633 146 793.8 154.033 793.8 164.7V165.8C793.8 176.467 790.667 184.5 784.4 189.9C778.133 195.3 768.833 198 756.5 198H723.8V132.4H756.5ZM756.5 184.5C764.033 184.5 769.567 183 773.1 180C776.7 177 778.5 172.333 778.5 166V164.6C778.5 158.333 776.667 153.667 773 150.6C769.333 147.467 763.8 145.9 756.4 145.9H738.8V184.5H756.5ZM816.117 132.4V198H801.017V132.4H816.117ZM857.3 199.2C846.5 199.2 838.3 197.267 832.7 193.4C827.1 189.533 824.3 183.867 824.3 176.4V175.4H839.1V176.4C839.1 179.6 840.7 182.033 843.9 183.7C847.1 185.367 851.767 186.2 857.9 186.2C863.367 186.2 867.5 185.633 870.3 184.5C873.167 183.3 874.6 181.567 874.6 179.3V178.6C874.6 176.8 873.8 175.433 872.2 174.5C870.6 173.5 867.767 172.7 863.7 172.1L847 169.7C832.6 167.567 825.4 161.633 825.4 151.9V150.9C825.4 144.7 828.1 139.867 833.5 136.4C838.967 132.933 846.6 131.2 856.4 131.2C866.8 131.2 874.733 133.067 880.2 136.8C885.667 140.533 888.4 145.933 888.4 153V153.9H873.6V153C873.6 147.133 867.867 144.2 856.4 144.2C851.267 144.2 847.333 144.733 844.6 145.8C841.933 146.867 840.6 148.433 840.6 150.5V151.3C840.6 152.833 841.333 154.033 842.8 154.9C844.333 155.767 846.933 156.467 850.6 157L867.4 159.4C875.067 160.533 880.7 162.6 884.3 165.6C887.967 168.533 889.8 172.633 889.8 177.9V178.9C889.8 185.3 886.967 190.3 881.3 193.9C875.633 197.433 867.633 199.2 857.3 199.2ZM935.048 199.2C927.115 199.2 920.148 197.833 914.148 195.1C908.148 192.367 903.515 188.5 900.248 183.5C897.048 178.433 895.448 172.533 895.448 165.8V164.7C895.448 157.967 897.048 152.1 900.248 147.1C903.515 142.033 908.148 138.133 914.148 135.4C920.148 132.6 927.115 131.2 935.048 131.2C942.382 131.2 948.948 132.4 954.748 134.8C960.615 137.2 965.182 140.533 968.448 144.8C971.782 149.067 973.448 153.867 973.448 159.2V160H958.148V159.2C958.148 156.467 957.148 154.033 955.148 151.9C953.215 149.767 950.482 148.1 946.948 146.9C943.482 145.7 939.482 145.1 934.948 145.1C927.015 145.1 920.982 146.767 916.848 150.1C912.782 153.433 910.748 158.233 910.748 164.5V166C910.748 172.333 912.782 177.133 916.848 180.4C920.915 183.667 926.982 185.3 935.048 185.3C942.048 185.3 947.648 184.033 951.848 181.5C956.048 178.9 958.148 175.5 958.148 171.3V170.6H973.448V171.3C973.448 176.633 971.782 181.433 968.448 185.7C965.182 189.9 960.615 193.2 954.748 195.6C948.948 198 942.382 199.2 935.048 199.2ZM1012.65 199.2C1006.12 199.2 1000.35 197.933 995.351 195.4C990.417 192.8 986.584 189.167 983.851 184.5C981.184 179.833 979.851 174.4 979.851 168.2V132.4H994.851V168.4C994.851 173.8 996.384 177.967 999.451 180.9C1002.58 183.833 1006.98 185.3 1012.65 185.3C1018.38 185.3 1022.78 183.833 1025.85 180.9C1028.98 177.967 1030.55 173.8 1030.55 168.4V132.4H1045.55V168.2C1045.55 174.4 1044.18 179.833 1041.45 184.5C1038.78 189.167 1034.95 192.8 1029.95 195.4C1025.02 197.933 1019.25 199.2 1012.65 199.2ZM1086.15 199.2C1075.35 199.2 1067.15 197.267 1061.55 193.4C1055.95 189.533 1053.15 183.867 1053.15 176.4V175.4H1067.95V176.4C1067.95 179.6 1069.55 182.033 1072.75 183.7C1075.95 185.367 1080.61 186.2 1086.75 186.2C1092.21 186.2 1096.35 185.633 1099.15 184.5C1102.01 183.3 1103.45 181.567 1103.45 179.3V178.6C1103.45 176.8 1102.65 175.433 1101.05 174.5C1099.45 173.5 1096.61 172.7 1092.55 172.1L1075.85 169.7C1061.45 167.567 1054.25 161.633 1054.25 151.9V150.9C1054.25 144.7 1056.95 139.867 1062.35 136.4C1067.81 132.933 1075.45 131.2 1085.25 131.2C1095.65 131.2 1103.58 133.067 1109.05 136.8C1114.51 140.533 1117.25 145.933 1117.25 153V153.9H1102.45V153C1102.45 147.133 1096.71 144.2 1085.25 144.2C1080.11 144.2 1076.18 144.733 1073.45 145.8C1070.78 146.867 1069.45 148.433 1069.45 150.5V151.3C1069.45 152.833 1070.18 154.033 1071.65 154.9C1073.18 155.767 1075.78 156.467 1079.45 157L1096.25 159.4C1103.91 160.533 1109.55 162.6 1113.15 165.6C1116.81 168.533 1118.65 172.633 1118.65 177.9V178.9C1118.65 185.3 1115.81 190.3 1110.15 193.9C1104.48 197.433 1096.48 199.2 1086.15 199.2ZM1158.3 199.2C1147.5 199.2 1139.3 197.267 1133.7 193.4C1128.1 189.533 1125.3 183.867 1125.3 176.4V175.4H1140.1V176.4C1140.1 179.6 1141.7 182.033 1144.9 183.7C1148.1 185.367 1152.76 186.2 1158.9 186.2C1164.36 186.2 1168.5 185.633 1171.3 184.5C1174.16 183.3 1175.6 181.567 1175.6 179.3V178.6C1175.6 176.8 1174.8 175.433 1173.2 174.5C1171.6 173.5 1168.76 172.7 1164.7 172.1L1148 169.7C1133.6 167.567 1126.4 161.633 1126.4 151.9V150.9C1126.4 144.7 1129.1 139.867 1134.5 136.4C1139.96 132.933 1147.6 131.2 1157.4 131.2C1167.8 131.2 1175.73 133.067 1181.2 136.8C1186.66 140.533 1189.4 145.933 1189.4 153V153.9H1174.6V153C1174.6 147.133 1168.86 144.2 1157.4 144.2C1152.26 144.2 1148.33 144.733 1145.6 145.8C1142.93 146.867 1141.6 148.433 1141.6 150.5V151.3C1141.6 152.833 1142.33 154.033 1143.8 154.9C1145.33 155.767 1147.93 156.467 1151.6 157L1168.4 159.4C1176.06 160.533 1181.7 162.6 1185.3 165.6C1188.96 168.533 1190.8 172.633 1190.8 177.9V178.9C1190.8 185.3 1187.96 190.3 1182.3 193.9C1176.63 197.433 1168.63 199.2 1158.3 199.2ZM1214.14 132.4V198H1199.04V132.4H1214.14ZM1260.43 199.2C1252.56 199.2 1245.69 197.833 1239.83 195.1C1233.96 192.367 1229.39 188.467 1226.13 183.4C1222.93 178.333 1221.33 172.433 1221.33 165.7V164.8C1221.33 158.067 1222.93 152.167 1226.13 147.1C1229.39 142.033 1233.96 138.133 1239.83 135.4C1245.76 132.6 1252.63 131.2 1260.43 131.2C1268.29 131.2 1275.16 132.6 1281.03 135.4C1286.89 138.133 1291.43 142.033 1294.63 147.1C1297.83 152.167 1299.43 158.067 1299.43 164.8V165.7C1299.43 172.433 1297.83 178.333 1294.63 183.4C1291.43 188.467 1286.89 192.367 1281.03 195.1C1275.16 197.833 1268.29 199.2 1260.43 199.2ZM1260.43 185.3C1268.16 185.3 1274.03 183.633 1278.03 180.3C1282.09 176.967 1284.13 172.167 1284.13 165.9V164.7C1284.13 158.433 1282.06 153.6 1277.93 150.2C1273.86 146.8 1268.03 145.1 1260.43 145.1C1252.76 145.1 1246.86 146.8 1242.73 150.2C1238.66 153.6 1236.63 158.433 1236.63 164.7V165.9C1236.63 172.167 1238.66 176.967 1242.73 180.3C1246.86 183.633 1252.76 185.3 1260.43 185.3ZM1373.32 132.4V198H1358.92L1321.42 153.5V198H1307.02V132.4H1321.42L1358.92 176.8V132.4H1373.32ZM765.4 242.4C773.133 242.4 779.233 244.267 783.7 248C788.167 251.733 790.4 256.833 790.4 263.3V264.4C790.4 270.933 788.167 276.067 783.7 279.8C779.233 283.533 773.133 285.4 765.4 285.4H738.8V308H723.8V242.4H765.4ZM765 272.1C768.267 272.1 770.767 271.467 772.5 270.2C774.233 268.867 775.1 266.933 775.1 264.4V263.3C775.1 260.833 774.233 258.967 772.5 257.7C770.767 256.367 768.267 255.7 765 255.7H738.8V272.1H765ZM812.511 242.4V294.5H857.011V308H797.511V242.4H812.511ZM929.263 305.7V308H914.263L908.263 294.4H875.463L869.463 308H854.463V305.7L883.563 242.4H900.163L929.263 305.7ZM902.563 281.4L891.863 257L881.163 281.4H902.563ZM918.806 255.9V242.4H985.106V255.9H959.506V308H944.406V255.9H918.806ZM1047.95 242.4V255.9H1004.35V269.8H1045.95V283.3H1004.35V308H989.347V242.4H1047.95ZM1090.86 309.2C1082.99 309.2 1076.12 307.833 1070.26 305.1C1064.39 302.367 1059.82 298.467 1056.56 293.4C1053.36 288.333 1051.76 282.433 1051.76 275.7V274.8C1051.76 268.067 1053.36 262.167 1056.56 257.1C1059.82 252.033 1064.39 248.133 1070.26 245.4C1076.19 242.6 1083.06 241.2 1090.86 241.2C1098.72 241.2 1105.59 242.6 1111.46 245.4C1117.32 248.133 1121.86 252.033 1125.06 257.1C1128.26 262.167 1129.86 268.067 1129.86 274.8V275.7C1129.86 282.433 1128.26 288.333 1125.06 293.4C1121.86 298.467 1117.32 302.367 1111.46 305.1C1105.59 307.833 1098.72 309.2 1090.86 309.2ZM1090.86 295.3C1098.59 295.3 1104.46 293.633 1108.46 290.3C1112.52 286.967 1114.56 282.167 1114.56 275.9V274.7C1114.56 268.433 1112.49 263.6 1108.36 260.2C1104.29 256.8 1098.46 255.1 1090.86 255.1C1083.19 255.1 1077.29 256.8 1073.16 260.2C1069.09 263.6 1067.06 268.433 1067.06 274.7V275.9C1067.06 282.167 1069.09 286.967 1073.16 290.3C1077.29 293.633 1083.19 295.3 1090.86 295.3ZM1204.05 264.7C1204.05 270.033 1202.35 274.4 1198.95 277.8C1195.62 281.2 1190.85 283.333 1184.65 284.2L1203.75 305.7V308H1186.55L1166.15 284.5H1152.45V308H1137.45V242.4H1179.05C1186.85 242.4 1192.95 244.3 1197.35 248.1C1201.82 251.833 1204.05 257 1204.05 263.6V264.7ZM1188.75 263.3C1188.75 260.833 1187.89 258.967 1186.15 257.7C1184.49 256.367 1181.99 255.7 1178.65 255.7H1152.45V272.1H1178.65C1181.92 272.1 1184.42 271.467 1186.15 270.2C1187.89 268.867 1188.75 266.933 1188.75 264.4V263.3ZM1300.32 308H1285.42V262.8L1264.22 308H1249.12L1227.92 262.6V308H1213.02V242.4H1233.72L1256.72 291.1L1279.62 242.4H1300.32V308Z" fill="#2E1EDA"/>
<path d="M194.62 679.07V634.52H413.41V679.07H328.93V851H279.1V679.07H194.62ZM536.866 854.96C510.906 854.96 488.246 850.45 468.886 841.43C449.526 832.41 434.456 819.54 423.676 802.82C413.116 786.1 407.836 766.63 407.836 744.41V741.44C407.836 719.22 413.116 699.75 423.676 683.03C434.456 666.31 449.526 653.44 468.886 644.42C488.466 635.18 511.126 630.56 536.866 630.56C562.826 630.56 585.486 635.18 604.846 644.42C624.206 653.44 639.166 666.31 649.726 683.03C660.286 699.75 665.566 719.22 665.566 741.44V744.41C665.566 766.63 660.286 786.1 649.726 802.82C639.166 819.54 624.206 832.41 604.846 841.43C585.486 850.45 562.826 854.96 536.866 854.96ZM536.866 809.09C562.386 809.09 581.746 803.59 594.946 792.59C608.366 781.59 615.076 765.75 615.076 745.07V741.11C615.076 720.43 608.256 704.48 594.616 693.26C581.196 682.04 561.946 676.43 536.866 676.43C511.566 676.43 492.096 682.04 478.456 693.26C465.036 704.48 458.326 720.43 458.326 741.11V745.07C458.326 765.75 465.036 781.59 478.456 792.59C492.096 803.59 511.566 809.09 536.866 809.09ZM999.64 634.52V679.07H855.76V724.94H993.04V769.49H855.76V851H806.26V634.52H999.64ZM1227.51 843.41V851H1178.01L1158.21 806.12H1049.97L1030.17 851H980.667V843.41L1076.7 634.52H1131.48L1227.51 843.41ZM1139.4 763.22L1104.09 682.7L1068.78 763.22H1139.4ZM1348.11 854.96C1321.93 854.96 1298.94 850.45 1279.14 841.43C1259.34 832.41 1244.05 819.65 1233.27 803.15C1222.71 786.43 1217.43 766.96 1217.43 744.74V741.11C1217.43 718.89 1222.71 699.53 1233.27 683.03C1244.05 666.31 1259.34 653.44 1279.14 644.42C1298.94 635.18 1321.93 630.56 1348.11 630.56C1372.31 630.56 1393.98 634.52 1413.12 642.44C1432.48 650.36 1447.55 661.36 1458.33 675.44C1469.33 689.52 1474.83 705.36 1474.83 722.96V725.6H1424.34V722.96C1424.34 713.94 1421.04 705.91 1414.44 698.87C1408.06 691.83 1399.04 686.33 1387.38 682.37C1375.94 678.41 1362.74 676.43 1347.78 676.43C1321.6 676.43 1301.69 681.93 1288.05 692.93C1274.63 703.93 1267.92 719.77 1267.92 740.45V745.4C1267.92 766.3 1274.63 782.14 1288.05 792.92C1301.47 803.7 1321.49 809.09 1348.11 809.09C1371.21 809.09 1389.69 804.91 1403.55 796.55C1417.41 787.97 1424.34 776.75 1424.34 762.89V760.58H1474.83V762.89C1474.83 780.49 1469.33 796.33 1458.33 810.41C1447.55 824.27 1432.48 835.16 1413.12 843.08C1393.98 851 1372.31 854.96 1348.11 854.96ZM1691.65 634.52V678.08H1548.76V720.98H1685.05V764.21H1548.76V807.44H1691.65V851H1499.26V634.52H1691.65Z" fill="#2E1EDA"/>
</svg>
