<?xml version="1.0" encoding="utf-8"?>
<!-- Generator: Adobe Illustrator 26.3.1, SVG Export Plug-In . SVG Version: 6.00 Build 0)  -->
<svg version="1.1" xmlns="http://www.w3.org/2000/svg" xmlns:xlink="http://www.w3.org/1999/xlink" x="0px" y="0px"
	 viewBox="0 0 1275.59 708.66" style="enable-background:new 0 0 1275.59 708.66;" xml:space="preserve">
<style type="text/css">
	.st0{clip-path:url(#SVGID_00000090990123458965176510000012744652134725470891_);fill:#FF6400;}
	.st1{opacity:0.73;fill:#98DF14;}
	.st2{fill:#2900BA;}
	.st3{fill:#2D00DE;}
	.st4{fill:#FFFFFF;}
	.st5{fill:#FFB700;}
	.st6{fill:#3A4DE7;}
	.st7{display:none;}
	.st8{display:inline;opacity:0.4;}
	.st9{opacity:0.2;fill:#FFFFFF;}
</style>
<g id="Слой_4">
	<g>
		<g>
			<path class="st4" d="M153.18,211.17l8.74,71.33h16.43l53.5-71.33h52.45l-72.03,92.31l77.28,103.5h-52.8l-56.3-80.42h-17.48
				l-9.79,80.42h-44.06l12.94-97.91l-12.94-97.91H153.18z"/>
			<path class="st4" d="M301.09,309.08c0-56.3,44.06-101.4,101.05-101.4c57.7,0,101.75,45.11,101.75,101.4s-44.06,101.4-101.4,101.4
				S301.09,365.38,301.09,309.08z M458.79,309.08c0-33.22-23.08-59.44-56.65-59.44c-32.87,0-55.95,25.88-55.95,59.44
				c0,33.22,23.08,59.44,56.3,59.44S458.79,342.65,458.79,309.08z"/>
			<path class="st4" d="M723.13,366.78v40.21h-32.87c-27.97,0-32.87-11.19-43.01-35.67l-29.37-71.33l-58.39,107h-48.25l89.16-159.1
				l-10.14-62.94h-31.12v-40.21h33.92c26.92,0,36.02,9.79,40.56,35.67l12.94,76.23l45.46,110.15H723.13z"/>
			<path class="st4" d="M939.22,366.78v40.21h-32.87c-27.97,0-32.87-11.19-43.01-35.67l-29.37-71.33l-58.39,107h-48.25l89.16-159.1
				l-10.14-62.94h-31.12v-40.21h33.92c26.92,0,36.02,9.79,40.56,35.67l12.94,76.23l45.46,110.15H939.22z"/>
			<path class="st4" d="M956.7,309.78c0-57.7,36.71-102.1,94.76-102.1c35.67,0,63.29,19.93,73.08,41.26l3.85-37.76h44.06
				l-12.94,97.91l12.94,97.91h-44.06l-3.85-37.76c-12.59,25.18-39.86,41.26-73.08,41.26C996.57,410.49,956.7,367.48,956.7,309.78z
				 M1117.9,309.08c-4.9-32.17-28.32-59.44-60.49-59.44c-33.57,0-53.85,23.78-53.85,59.79c0,34.97,23.78,59.09,56.65,59.09
				C1092.03,368.53,1113.01,339.15,1117.9,309.08z"/>
			<path class="st4" d="M107.22,540.6v-53.23H97.05v-13.76h10.17v-16.15c0-8.73,3.83-12.56,12.56-12.56h27.87v13.76h-25.12v14.95
				h22.25v13.76h-22.25v53.23H107.22z"/>
			<path class="st4" d="M148.85,507.34c0-19.74,12.56-34.93,32.42-34.93c12.2,0,21.65,6.82,25,14.12l1.56-12.92h15.07l-4.67,33.5
				l4.67,33.5h-15.07l-1.56-12.92c-4.31,8.61-13.64,14.12-25,14.12C162.48,541.79,148.85,527.08,148.85,507.34z M203.99,507.1
				c-1.68-11.01-9.69-20.34-20.7-20.34c-11.48,0-18.42,8.13-18.42,20.46c0,11.96,8.13,20.22,19.38,20.22
				C195.14,527.44,202.32,517.39,203.99,507.1z"/>
			<path class="st4" d="M268.83,541.79c-19.86,0-34.45-15.31-34.45-34.69c0-19.38,14.71-34.69,34.45-34.69
				c14.83,0,26.56,8.49,31.7,21.05l-13.88,5.14c-3.11-7.42-9.09-11.84-17.94-11.84c-11.48,0-18.9,8.85-18.9,20.34
				c0,11.36,7.3,20.34,18.9,20.34c8.85,0,14.83-4.55,17.94-11.84l13.88,5.26C295.38,533.3,283.66,541.79,268.83,541.79z"/>
			<path class="st4" d="M319.78,473.61v-17.94h15.31v17.94h18.54v13.76H335.1v39.48h18.54v13.76h-21.29
				c-8.73,0-12.56-3.83-12.56-12.56v-40.67h-9.57v-13.76H319.78z"/>
			<path class="st4" d="M362.85,507.1c0-19.26,15.07-34.69,34.57-34.69c19.74,0,34.81,15.43,34.81,34.69
				c0,19.26-15.07,34.69-34.69,34.69C377.92,541.79,362.85,526.36,362.85,507.1z M416.8,507.1c0-11.36-7.9-20.34-19.38-20.34
				c-11.24,0-19.14,8.85-19.14,20.34c0,11.36,7.9,20.34,19.26,20.34C408.9,527.44,416.8,518.59,416.8,507.1z"/>
			<path class="st4" d="M459.62,481.26l22.37-8.85v14.95l-22.37,8.85v44.38h-15.31v-66.99h15.31V481.26z"/>
			<path class="st4" d="M525.41,529.71v21.65c0,8.73-3.83,12.56-12.56,12.56h-12.92v-13.76h10.17v-20.46l-25-57.3h16.39l16.27,40.07
				l17.35-40.07h15.43L525.41,529.71z"/>
			<path class="st4" d="M587.01,507.1c0-19.26,15.07-34.69,34.57-34.69c19.74,0,34.81,15.43,34.81,34.69
				c0,19.26-15.07,34.69-34.69,34.69C602.09,541.79,587.01,526.36,587.01,507.1z M640.97,507.1c0-11.36-7.9-20.34-19.38-20.34
				c-11.24,0-19.14,8.85-19.14,20.34c0,11.36,7.9,20.34,19.26,20.34C633.07,527.44,640.97,518.59,640.97,507.1z"/>
			<path class="st4" d="M674.94,540.6v-53.23h-10.17v-13.76h10.17v-16.15c0-8.73,3.83-12.56,12.56-12.56h27.87v13.76h-25.12v14.95
				h22.25v13.76h-22.25v53.23H674.94z"/>
			<path class="st4" d="M789.77,541.79c-19.86,0-34.45-15.31-34.45-34.69c0-19.38,14.71-34.69,34.45-34.69
				c14.83,0,26.56,8.49,31.7,21.05l-13.88,5.14c-3.11-7.42-9.09-11.84-17.94-11.84c-11.48,0-18.9,8.85-18.9,20.34
				c0,11.36,7.3,20.34,18.9,20.34c8.85,0,14.83-4.55,17.94-11.84l13.88,5.26C816.33,533.3,804.61,541.79,789.77,541.79z"/>
			<path class="st4" d="M856.52,541.79c-15.79,0-22.97-10.41-22.97-29.43v-38.76h15.31v36.37c0,10.41,2.15,17.47,11.48,17.47
				c9.57,0,14.48-10.05,15.67-20.34l4.07-33.5h15.07l-4.43,33.5l4.43,33.5h-15.07l-1.44-13.4
				C874.34,535.81,867.89,541.79,856.52,541.79z"/>
			<path class="st4" d="M925.54,540.6h-15.31v-95.7h15.31V540.6z"/>
			<path class="st4" d="M947.79,473.61v-17.94h15.31v17.94h18.54v13.76H963.1v39.48h18.54v13.76h-21.29
				c-8.73,0-12.56-3.83-12.56-12.56v-40.67h-9.57v-13.76H947.79z"/>
			<path class="st4" d="M1016.81,541.79c-15.79,0-22.97-10.41-22.97-29.43v-38.76h15.31v36.37c0,10.41,2.15,17.47,11.48,17.47
				c9.57,0,14.47-10.05,15.67-20.34l4.07-33.5h15.07l-4.43,33.5l4.43,33.5h-15.07l-1.44-13.4
				C1034.64,535.81,1028.18,541.79,1016.81,541.79z"/>
			<path class="st4" d="M1085.83,481.26l22.37-8.85v14.95l-22.37,8.85v44.38h-15.31v-66.99h15.31V481.26z"/>
			<path class="st4" d="M1145.29,541.79c-19.5,0-33.74-15.19-33.74-34.69c0-19.38,14.36-34.69,34.09-34.69
				c18.9,0,32.54,14.36,32.9,37.68h-51.8c1.2,9.93,7.9,17.35,18.42,17.35c8.97,0,14.71-4.07,17.94-10.17l13.88,5.26
				C1171.6,533.9,1160.48,541.79,1145.29,541.79z M1128.06,498.13h33.26c-2.63-7.3-8.37-11.36-16.63-11.36
				C1136.07,486.76,1130.57,491.31,1128.06,498.13z"/>
		</g>
	</g>
</g>
<g id="ruls" class="st7">
</g>
</svg>
